<svg width="24" height="24" viewBox="0 0 24 24" fill="none" xmlns="http://www.w3.org/2000/svg">
<path d="M21.354 0.562587H1.854C1.41156 0.558084 0.985404 0.729282 0.669039 1.03862C0.352674 1.34795 0.171944 1.77016 0.166504 2.21259V21.7913C0.172927 22.2331 0.35409 22.6544 0.670348 22.9629C0.986606 23.2714 1.4122 23.4421 1.854 23.4376H21.354C21.7965 23.4411 22.2223 23.2693 22.5385 22.9598C22.8547 22.6503 23.0356 22.2282 23.0415 21.7857V2.20696C23.0336 1.76583 22.8519 1.34564 22.5359 1.03772C22.2199 0.729808 21.7952 0.559058 21.354 0.562587Z" fill="#0076B2"/>
<path d="M3.55275 9.13696H6.94838V20.0626H3.55275V9.13696ZM5.2515 3.69946C5.64097 3.69946 6.02168 3.81497 6.34548 4.03139C6.66928 4.2478 6.92162 4.55539 7.07057 4.91524C7.21953 5.27509 7.2584 5.67103 7.18229 6.05299C7.10617 6.43494 6.91848 6.78573 6.64296 7.06099C6.36743 7.33625 6.01646 7.52361 5.63444 7.59936C5.25241 7.67511 4.85651 7.63586 4.4968 7.48656C4.13709 7.33726 3.82974 7.08463 3.61364 6.76063C3.39753 6.43662 3.28238 6.0558 3.28275 5.66634C3.28325 5.14452 3.49089 4.64424 3.86005 4.27543C4.22921 3.90663 4.72968 3.69946 5.2515 3.69946ZM9.07838 9.13696H12.3334V10.637H12.3784C12.8321 9.77821 13.9384 8.87259 15.5903 8.87259C19.029 8.86509 19.6665 11.1282 19.6665 14.0626V20.0626H16.2709V14.747C16.2709 13.4813 16.2484 11.852 14.5065 11.852C12.7646 11.852 12.4684 13.232 12.4684 14.6645V20.0626H9.07838V9.13696Z" fill="white"/>
</svg>
