<svg width="25" height="24" viewBox="0 0 25 24" fill="none" xmlns="http://www.w3.org/2000/svg">
<g clip-path="url(#clip0_1084_238)">
<path d="M24.1666 12C24.1666 5.37262 18.794 0 12.1666 0C5.53925 0 0.166626 5.37262 0.166626 12C0.166626 17.9895 4.55488 22.954 10.2916 23.8542V15.4688H7.24475V12H10.2916V9.35625C10.2916 6.34875 12.0832 4.6875 14.8243 4.6875C16.1371 4.6875 17.5104 4.92188 17.5104 4.92188V7.875H15.9973C14.5065 7.875 14.0416 8.80003 14.0416 9.74906V12H17.3698L16.8377 15.4688H14.0416V23.8542C19.7784 22.954 24.1666 17.9896 24.1666 12Z" fill="#1877F2"/>
<path d="M16.8377 15.4688L17.3698 12H14.0416V9.74906C14.0416 8.80003 14.5065 7.875 15.9973 7.875H17.5104V4.92188C17.5104 4.92188 16.1371 4.6875 14.8243 4.6875C12.0832 4.6875 10.2916 6.34875 10.2916 9.35625V12H7.24475V15.4688H10.2916V23.8542C10.9119 23.9514 11.5388 24.0001 12.1666 24C12.7945 24.0001 13.4214 23.9514 14.0416 23.8542V15.4688H16.8377Z" fill="white"/>
</g>
<defs>
<clipPath id="clip0_1084_238">
<rect width="24" height="24" fill="white" transform="translate(0.166626)"/>
</clipPath>
</defs>
</svg>
