<svg width="25" height="24" viewBox="0 0 25 24" fill="none" xmlns="http://www.w3.org/2000/svg">
<g clip-path="url(#clip0_1084_240)">
<path d="M0.67866 11.8564C0.678098 13.8728 1.2091 15.8418 2.21879 17.5772L0.582098 23.5067L6.6976 21.9156C8.38907 22.8293 10.2842 23.308 12.2101 23.3082H12.2152C18.5728 23.3082 23.7481 18.1749 23.7508 11.8654C23.752 8.808 22.5532 5.93302 20.375 3.77005C18.1972 1.60726 15.3008 0.415535 12.2147 0.41414C5.85629 0.41414 0.681285 5.54716 0.67866 11.8564Z" fill="url(#paint0_linear_1084_240)"/>
<path d="M0.266816 11.8527C0.26616 13.9417 0.816191 15.981 1.86188 17.7786L0.166504 23.9207L6.50129 22.2726C8.24672 23.2168 10.2119 23.7147 12.2116 23.7154H12.2168C18.8025 23.7154 24.1637 18.3975 24.1665 11.8621C24.1676 8.69488 22.9256 5.71656 20.6696 3.47609C18.4133 1.23591 15.4133 0.00130233 12.2168 0C5.62988 0 0.269441 5.31721 0.266816 11.8527ZM4.03941 17.469L3.80288 17.0965C2.80857 15.5277 2.28375 13.7149 2.2845 11.8534C2.28657 6.4213 6.74194 2.00186 12.2205 2.00186C14.8736 2.00298 17.367 3.02921 19.2424 4.89116C21.1177 6.7533 22.1496 9.22865 22.1489 11.8614C22.1465 17.2935 17.691 21.7135 12.2168 21.7135H12.2128C10.4303 21.7126 8.68219 21.2376 7.15763 20.34L6.79482 20.1265L3.03563 21.1045L4.03941 17.469Z" fill="url(#paint1_linear_1084_240)"/>
<path d="M9.23007 6.89749C9.00638 6.40419 8.77097 6.39423 8.55825 6.38558C8.38407 6.37814 8.18494 6.3787 7.986 6.3787C7.78688 6.3787 7.46335 6.45302 7.18988 6.7493C6.91613 7.04586 6.14475 7.76251 6.14475 9.22009C6.14475 10.6777 7.21472 12.0864 7.36388 12.2843C7.51322 12.4818 9.42947 15.5687 12.4643 16.7562C14.9866 17.7431 15.4999 17.5468 16.0473 17.4973C16.5948 17.448 17.8139 16.7808 18.0626 16.089C18.3115 15.3973 18.3115 14.8044 18.2369 14.6805C18.1623 14.557 17.9632 14.4829 17.6646 14.3348C17.366 14.1867 15.8979 13.4699 15.6243 13.371C15.3505 13.2722 15.1515 13.2229 14.9524 13.5195C14.7533 13.8157 14.1815 14.4829 14.0072 14.6805C13.8331 14.8785 13.6588 14.9032 13.3603 14.755C13.0615 14.6063 12.0999 14.2939 10.9591 13.2847C10.0715 12.4993 9.47222 11.5296 9.29803 11.2329C9.12385 10.9367 9.27938 10.7762 9.4291 10.6286C9.56325 10.4958 9.72779 10.2826 9.87722 10.1097C10.0261 9.93665 10.0758 9.81321 10.1753 9.61563C10.275 9.41786 10.2251 9.24484 10.1506 9.09665C10.0758 8.94847 9.49557 7.48326 9.23007 6.89749Z" fill="white"/>
</g>
<defs>
<linearGradient id="paint0_linear_1084_240" x1="1200.17" y1="2392.07" x2="1200.17" y2="0" gradientUnits="userSpaceOnUse">
<stop stop-color="#1FAF38"/>
<stop offset="1" stop-color="#60D669"/>
</linearGradient>
<linearGradient id="paint1_linear_1084_240" x1="1200.17" y1="2392.07" x2="1200.17" y2="0" gradientUnits="userSpaceOnUse">
<stop stop-color="#F9F9F9"/>
<stop offset="1" stop-color="white"/>
</linearGradient>
<clipPath id="clip0_1084_240">
<rect width="24" height="24" fill="white" transform="translate(0.166504)"/>
</clipPath>
</defs>
</svg>
