<svg width="25" height="24" viewBox="0 0 25 24" fill="none" xmlns="http://www.w3.org/2000/svg">
<g clip-path="url(#clip0_1084_242)">
<path d="M18.5415 0H5.7915C2.6849 0 0.166504 2.5184 0.166504 5.625V18.375C0.166504 21.4816 2.6849 24 5.7915 24H18.5415C21.6481 24 24.1665 21.4816 24.1665 18.375V5.625C24.1665 2.5184 21.6481 0 18.5415 0Z" fill="url(#paint0_radial_1084_242)"/>
<path d="M18.5415 0H5.7915C2.6849 0 0.166504 2.5184 0.166504 5.625V18.375C0.166504 21.4816 2.6849 24 5.7915 24H18.5415C21.6481 24 24.1665 21.4816 24.1665 18.375V5.625C24.1665 2.5184 21.6481 0 18.5415 0Z" fill="url(#paint1_radial_1084_242)"/>
<path d="M12.1673 2.625C9.62129 2.625 9.30169 2.63616 8.30175 2.68163C7.30369 2.72738 6.62241 2.88534 6.02635 3.11719C5.40966 3.35662 4.88663 3.67697 4.36557 4.19822C3.84404 4.71937 3.52369 5.24241 3.2835 5.85881C3.051 6.45506 2.89285 7.13662 2.84794 8.13422C2.80322 9.13425 2.7915 9.45394 2.7915 12.0001C2.7915 14.5463 2.80275 14.8648 2.84813 15.8647C2.89407 16.8628 3.05204 17.5441 3.28369 18.1402C3.52332 18.7568 3.84366 19.2799 4.36491 19.8009C4.88588 20.3225 5.40891 20.6436 6.02513 20.883C6.62166 21.1148 7.30303 21.2728 8.30091 21.3186C9.30094 21.364 9.62025 21.3752 12.1662 21.3752C14.7126 21.3752 15.0311 21.364 16.0311 21.3186C17.0291 21.2728 17.7112 21.1148 18.3077 20.883C18.9241 20.6436 19.4464 20.3225 19.9673 19.8009C20.4888 19.2799 20.809 18.7568 21.0493 18.1404C21.2798 17.5441 21.438 16.8626 21.4849 15.8649C21.5298 14.865 21.5415 14.5463 21.5415 12.0001C21.5415 9.45394 21.5298 9.13444 21.4849 8.13441C21.438 7.13634 21.2798 6.45516 21.0493 5.85909C20.809 5.24241 20.4888 4.71937 19.9673 4.19822C19.4458 3.67678 18.9243 3.35644 18.3071 3.11728C17.7095 2.88534 17.0278 2.72728 16.0298 2.68163C15.0297 2.63616 14.7113 2.625 12.1644 2.625H12.1673ZM11.3263 4.31447C11.576 4.31409 11.8545 4.31447 12.1673 4.31447C14.6706 4.31447 14.9672 4.32347 15.9557 4.36838C16.8698 4.41019 17.3659 4.56291 17.6963 4.69125C18.1339 4.86112 18.4458 5.06428 18.7737 5.3925C19.1018 5.72062 19.3049 6.03309 19.4753 6.47062C19.6036 6.80062 19.7565 7.29675 19.7981 8.21081C19.843 9.19913 19.8528 9.49594 19.8528 11.9979C19.8528 14.4999 19.843 14.7968 19.7981 15.7851C19.7563 16.6991 19.6036 17.1952 19.4753 17.5253C19.3054 17.9629 19.1018 18.2744 18.7737 18.6023C18.4456 18.9305 18.1341 19.1335 17.6963 19.3035C17.3663 19.4324 16.8698 19.5848 15.9557 19.6266C14.9674 19.6715 14.6706 19.6812 12.1673 19.6812C9.66404 19.6812 9.36732 19.6715 8.3791 19.6266C7.46503 19.5844 6.96891 19.4317 6.63816 19.3033C6.20072 19.1333 5.88816 18.9303 5.56003 18.6022C5.23191 18.274 5.02885 17.9623 4.8585 17.5246C4.73016 17.1945 4.57725 16.6984 4.53563 15.7843C4.49072 14.796 4.48172 14.4992 4.48172 11.9956C4.48172 9.492 4.49072 9.19678 4.53563 8.20847C4.57744 7.29441 4.73016 6.79828 4.8585 6.46781C5.02847 6.03028 5.23191 5.71781 5.56013 5.38969C5.88835 5.06156 6.20072 4.85841 6.63825 4.68816C6.96872 4.55925 7.46503 4.40691 8.3791 4.36491C9.24394 4.32581 9.5791 4.31409 11.3263 4.31212V4.31447ZM17.1717 5.87109C16.5506 5.87109 16.0467 6.37453 16.0467 6.99572C16.0467 7.61681 16.5506 8.12072 17.1717 8.12072C17.7928 8.12072 18.2967 7.61681 18.2967 6.99572C18.2967 6.37463 17.7928 5.87072 17.1717 5.87072V5.87109ZM12.1673 7.18556C9.5086 7.18556 7.35291 9.34125 7.35291 12.0001C7.35291 14.6589 9.5086 16.8136 12.1673 16.8136C14.8262 16.8136 16.9811 14.6589 16.9811 12.0001C16.9811 9.34134 14.826 7.18556 12.1672 7.18556H12.1673ZM12.1673 8.87503C13.8932 8.87503 15.2924 10.2741 15.2924 12.0001C15.2924 13.7259 13.8932 15.1252 12.1673 15.1252C10.4415 15.1252 9.04238 13.7259 9.04238 12.0001C9.04238 10.2741 10.4414 8.87503 12.1673 8.87503Z" fill="white"/>
</g>
<defs>
<radialGradient id="paint0_radial_1084_242" cx="0" cy="0" r="1" gradientUnits="userSpaceOnUse" gradientTransform="translate(6.5415 25.8485) rotate(-90) scale(23.7858 22.1227)">
<stop stop-color="#FFDD55"/>
<stop offset="0.1" stop-color="#FFDD55"/>
<stop offset="0.5" stop-color="#FF543E"/>
<stop offset="1" stop-color="#C837AB"/>
</radialGradient>
<radialGradient id="paint1_radial_1084_242" cx="0" cy="0" r="1" gradientUnits="userSpaceOnUse" gradientTransform="translate(-3.85359 1.72884) rotate(78.681) scale(10.6324 43.827)">
<stop stop-color="#3771C8"/>
<stop offset="0.128" stop-color="#3771C8"/>
<stop offset="1" stop-color="#6600FF" stop-opacity="0"/>
</radialGradient>
<clipPath id="clip0_1084_242">
<rect width="24" height="24" fill="white" transform="translate(0.166504)"/>
</clipPath>
</defs>
</svg>
