<svg width="25" height="20" viewBox="0 0 25 20" fill="none" xmlns="http://www.w3.org/2000/svg">
<g clip-path="url(#clip0_927_360)">
<path d="M24.5 2.38596C23.6013 2.78415 22.648 3.04549 21.6719 3.16127C22.6887 2.5519 23.4693 1.58693 23.8369 0.437181C22.8704 1.0107 21.8129 1.4148 20.7103 1.63202C19.812 0.675119 18.5324 0.0770874 17.1162 0.0770874C14.3968 0.0770874 12.1921 2.28171 12.1921 5.00084C12.1921 5.38681 12.2357 5.76256 12.3196 6.12302C8.22744 5.91762 4.59931 3.9574 2.17072 0.9784C1.74697 1.70562 1.50416 2.55152 1.50416 3.45377C1.50416 5.16209 2.3735 6.66912 3.69462 7.55215C2.9127 7.5277 2.14797 7.31651 1.46431 6.93621C1.46406 6.95684 1.46397 6.97749 1.46403 6.99818C1.46403 9.38384 3.16128 11.374 5.41372 11.8263C4.68864 12.0235 3.92809 12.0523 3.19016 11.9107C3.81669 13.8669 5.63516 15.2904 7.78972 15.3302C6.10456 16.6508 3.98141 17.438 1.67459 17.438C1.27709 17.438 0.885219 17.4146 0.5 17.3692C2.67903 18.7662 5.26719 19.5814 8.04781 19.5814C17.1047 19.5814 22.0573 12.0785 22.0573 5.57187C22.0573 5.35831 22.0525 5.14596 22.043 4.93484C23.0069 4.2379 23.8389 3.37479 24.5 2.38596Z" fill="#55ACEE"/>
</g>
<defs>
<clipPath id="clip0_927_360">
<rect width="24" height="19.5938" fill="white" transform="translate(0.5)"/>
</clipPath>
</defs>
</svg>
