<svg width="25" height="24" viewBox="0 0 25 24" fill="none" xmlns="http://www.w3.org/2000/svg">
<path d="M12.75 0C19.4531 0 24.5156 5.625 24.75 12V18.75C24.75 21.0469 22.875 22.875 20.625 22.875H15.4219C15.0469 23.5781 14.2969 24 13.5 24H12C10.7344 24 9.75 23.0156 9.75 21.75C9.75 20.5312 10.7344 19.5 12 19.5H13.5C14.2969 19.5 15.0469 19.9688 15.4219 20.625H20.625C21.6562 20.625 22.5 19.8281 22.5 18.75V17.8125C22.125 17.9531 21.7031 18 21.2812 18H20.4375C19.5 18 18.75 17.25 18.75 16.2656V10.0312C18.75 9.04688 19.5 8.25 20.4375 8.25H21.2812C21.4688 8.25 21.6094 8.29688 21.75 8.34375C20.2969 4.78125 16.7812 2.29688 12.75 2.29688C8.67188 2.29688 5.15625 4.78125 3.70312 8.34375C3.84375 8.29688 3.98438 8.25 4.17188 8.25H5.01562C5.95312 8.25 6.75 9.04688 6.75 10.0312V16.2656C6.75 17.25 5.95312 18 5.01562 18H4.17188C2.25 18 0.75 16.4531 0.75 14.5312V12C0.9375 5.625 6 0 12.75 0ZM4.17188 10.5C3.51562 10.5 3.04688 11.0625 3 11.6719C3 11.8125 3 11.9062 3 12V14.5312C3 15.1875 3.51562 15.75 4.17188 15.75H4.5V10.5H4.17188ZM21.2812 15.75C21.9375 15.75 22.5 15.1875 22.5 14.5312V12C22.5 11.9062 22.4531 11.8125 22.4531 11.6719C22.4062 11.0625 21.9375 10.5 21.2812 10.5H21V15.75H21.2812Z" fill="#1A73E8"/>
</svg>
