<svg width="28" height="22" viewBox="0 0 28 22" fill="none" xmlns="http://www.w3.org/2000/svg">
<path d="M7.5 0.656982C10.875 0.703857 13.0781 2.20386 13.1719 2.25073C13.3594 2.39136 13.5 2.62573 13.5 2.90698V20.907C13.5 21.0945 13.3125 21.6101 12.75 21.6101C12.5625 21.6101 12.4219 21.5632 12.2812 21.4695C12.0938 21.3289 7.6875 18.0476 1.78125 20.8132C1.26562 21.0476 0.75 20.6726 0.75 20.157V3.37573C0.75 2.76636 1.07812 2.25073 1.59375 2.01636C3.70312 1.07886 5.71875 0.610107 7.5 0.656982ZM26.8594 2.01636C27.375 2.25073 27.75 2.76636 27.75 3.37573V20.157C27.75 20.6726 27.1875 21.0476 26.6719 20.8132C20.7656 18.0476 16.3594 21.3289 16.1719 21.4695C16.0312 21.5632 15.8906 21.6101 15.75 21.6101C15.1406 21.6101 15 21.0945 15 20.907V2.90698C15 2.62573 15.0938 2.39136 15.2812 2.25073C15.375 2.20386 17.5781 0.703857 20.9531 0.656982C22.6875 0.610107 24.75 1.07886 26.8594 2.01636Z" fill="#438BF4"/>
</svg>
