<svg width="13" height="15" viewBox="0 0 13 15" fill="none" xmlns="http://www.w3.org/2000/svg">
<path d="M11.6357 11.6875H11.417V13.4375H11.6357C11.9912 13.4375 12.292 13.7383 12.292 14.0938C12.292 14.4766 11.9912 14.75 11.6357 14.75H2.22949C0.999023 14.75 0.0419922 13.793 0.0419922 12.5625V2.9375C0.0419922 1.73438 0.999023 0.75 2.22949 0.75H11.6357C11.9912 0.75 12.292 1.05078 12.292 1.40625V11.0312C12.292 11.4141 11.9912 11.6875 11.6357 11.6875ZM10.1045 13.4375V11.6875H2.22949C1.7373 11.6875 1.35449 12.0977 1.35449 12.5625C1.35449 13.0547 1.7373 13.4375 2.22949 13.4375H10.1045ZM10.9795 10.375V2.0625H2.22949C1.7373 2.0625 1.35449 2.47266 1.35449 2.9375V10.5664C1.60059 10.457 1.90137 10.375 2.22949 10.375H10.9795ZM4.19824 5.125C3.81543 5.125 3.54199 4.85156 3.54199 4.46875C3.54199 4.11328 3.81543 3.8125 4.19824 3.8125H9.01074C9.36621 3.8125 9.66699 4.11328 9.66699 4.46875C9.66699 4.85156 9.36621 5.125 9.01074 5.125H4.19824ZM4.19824 7.3125C3.81543 7.3125 3.54199 7.03906 3.54199 6.65625C3.54199 6.30078 3.81543 6 4.19824 6H9.01074C9.36621 6 9.66699 6.30078 9.66699 6.65625C9.66699 7.03906 9.36621 7.3125 9.01074 7.3125H4.19824Z" fill="black"/>
</svg>
