<svg width="14" height="14" viewBox="0 0 14 14" fill="none" xmlns="http://www.w3.org/2000/svg">
<path d="M7.16699 2.8125C9.32715 2.8125 11.0771 4.58984 11.0771 6.75C11.0771 8.9375 9.32715 10.6875 7.16699 10.6875C4.97949 10.6875 3.22949 8.9375 3.22949 6.75C3.22949 4.58984 4.97949 2.8125 7.16699 2.8125ZM7.16699 9.375C8.58887 9.375 9.79199 8.19922 9.79199 6.75C9.79199 5.32812 8.58887 4.125 7.16699 4.125C5.71777 4.125 4.51465 5.32812 4.51465 6.75C4.51465 8.19922 5.71777 9.375 7.16699 9.375ZM7.16699 0.1875C10.7764 0.1875 13.7295 3.14062 13.7295 6.75C13.7295 10.3867 10.7764 13.3125 7.16699 13.3125C3.53027 13.3125 0.604492 10.3867 0.604492 6.75C0.604492 3.14062 3.53027 0.1875 7.16699 0.1875ZM7.16699 12C10.0654 12 12.3896 9.67578 12.3896 6.75C12.3896 3.85156 10.0654 1.5 7.16699 1.5C4.24121 1.5 1.91699 3.85156 1.91699 6.75C1.91699 9.67578 4.24121 12 7.16699 12ZM7.16699 5.4375C7.87793 5.4375 8.47949 6.03906 8.47949 6.75C8.47949 7.48828 7.87793 8.0625 7.16699 8.0625C6.42871 8.0625 5.85449 7.48828 5.85449 6.75C5.85449 6.03906 6.42871 5.4375 7.16699 5.4375Z" fill="black"/>
</svg>
