<svg width="40" height="40" viewBox="0 0 40 40" fill="none" xmlns="http://www.w3.org/2000/svg">
<path d="M16.6667 5.33335C14.0595 5.93775 11.6616 7.22868 9.72149 9.07224C7.78142 10.9158 6.36992 13.2448 5.6334 15.8178C4.89688 18.3908 4.86216 21.1139 5.53284 23.7048C6.20352 26.2957 7.55517 28.66 9.4476 30.5524C11.34 32.4449 13.7043 33.7965 16.2952 34.4672C18.8861 35.1379 21.6093 35.1032 24.1822 34.3666C26.7552 33.6301 29.0842 32.2186 30.9278 30.2785C32.7714 28.3385 34.0623 25.9405 34.6667 23.3333C34.6667 22.8913 34.4911 22.4674 34.1785 22.1548C33.866 21.8423 33.442 21.6667 33 21.6667H21.6667C20.7826 21.6667 19.9348 21.3155 19.3097 20.6904C18.6845 20.0652 18.3334 19.2174 18.3334 18.3333V6.66668C18.3126 6.46922 18.2529 6.27784 18.1577 6.10363C18.0625 5.92942 17.9336 5.77584 17.7786 5.65182C17.6235 5.52779 17.4454 5.43577 17.2546 5.3811C17.0637 5.32644 16.8639 5.3102 16.6667 5.33335Z" stroke="white" stroke-width="2" stroke-linecap="round" stroke-linejoin="round"/>
<path d="M25 5.83335C27.1162 6.57849 29.0383 7.78885 30.6248 9.37528C32.2112 10.9617 33.4215 12.8838 34.1667 15H26.6667C26.2247 15 25.8007 14.8244 25.4882 14.5119C25.1756 14.1993 25 13.7754 25 13.3333V5.83335Z" stroke="white" stroke-width="2" stroke-linecap="round" stroke-linejoin="round"/>
</svg>
