<svg width="15" height="14" viewBox="0 0 15 14" fill="none" xmlns="http://www.w3.org/2000/svg">
<path d="M7.5 0.1875C11.1094 0.1875 14.0625 3.14062 14.0625 6.75C14.0625 10.3867 11.1094 13.3125 7.5 13.3125C3.86328 13.3125 0.9375 10.3867 0.9375 6.75C0.9375 3.14062 3.86328 0.1875 7.5 0.1875ZM7.5 12C10.3711 12 12.75 9.64844 12.75 6.75C12.75 3.87891 10.3711 1.5 7.5 1.5C4.60156 1.5 2.25 3.87891 2.25 6.75C2.25 9.64844 4.60156 12 7.5 12ZM9.66016 4.5625C9.90625 4.28906 10.3164 4.28906 10.5625 4.5625C10.8359 4.80859 10.8359 5.21875 10.5625 5.46484L7.0625 8.96484C6.95312 9.10156 6.78906 9.15625 6.625 9.15625C6.43359 9.15625 6.26953 9.10156 6.16016 8.96484L4.41016 7.21484C4.13672 6.96875 4.13672 6.55859 4.41016 6.3125C4.65625 6.03906 5.06641 6.03906 5.3125 6.3125L6.625 7.59766L9.66016 4.5625Z" fill="#4285F4"/>
</svg>
