<svg width="14" height="14" viewBox="0 0 14 14" fill="none" xmlns="http://www.w3.org/2000/svg">
<path d="M7.16699 0.1875C10.7764 0.1875 13.7295 3.14062 13.7295 6.75C13.7295 10.3867 10.7764 13.3125 7.16699 13.3125C3.53027 13.3125 0.604492 10.3867 0.604492 6.75C0.604492 3.14062 3.53027 0.1875 7.16699 0.1875ZM7.16699 12C10.0381 12 12.417 9.64844 12.417 6.75C12.417 3.87891 10.0381 1.5 7.16699 1.5C4.26855 1.5 1.91699 3.87891 1.91699 6.75C1.91699 9.64844 4.26855 12 7.16699 12ZM9.32715 4.5625C9.57324 4.28906 9.9834 4.28906 10.2295 4.5625C10.5029 4.80859 10.5029 5.21875 10.2295 5.46484L6.72949 8.96484C6.62012 9.10156 6.45605 9.15625 6.29199 9.15625C6.10059 9.15625 5.93652 9.10156 5.82715 8.96484L4.07715 7.21484C3.80371 6.96875 3.80371 6.55859 4.07715 6.3125C4.32324 6.03906 4.7334 6.03906 4.97949 6.3125L6.29199 7.59766L9.32715 4.5625Z" fill="black"/>
</svg>
