<svg width="20" height="19" viewBox="0 0 20 19" fill="none" xmlns="http://www.w3.org/2000/svg">
<path d="M10 0.125C15.1562 0.125 19.375 4.34375 19.375 9.5C19.375 14.6953 15.1562 18.875 10 18.875C4.80469 18.875 0.625 14.6953 0.625 9.5C0.625 4.34375 4.80469 0.125 10 0.125ZM10 17C14.1016 17 17.5 13.6406 17.5 9.5C17.5 5.39844 14.1016 2 10 2C5.85938 2 2.5 5.39844 2.5 9.5C2.5 13.6406 5.85938 17 10 17ZM13.0859 6.375C13.4375 5.98438 14.0234 5.98438 14.375 6.375C14.7656 6.72656 14.7656 7.3125 14.375 7.66406L9.375 12.6641C9.21875 12.8594 8.98438 12.9375 8.75 12.9375C8.47656 12.9375 8.24219 12.8594 8.08594 12.6641L5.58594 10.1641C5.19531 9.8125 5.19531 9.22656 5.58594 8.875C5.9375 8.48438 6.52344 8.48438 6.875 8.875L8.75 10.7109L13.0859 6.375Z" fill="#FFA726"/>
</svg>
