<svg width="31" height="31" viewBox="0 0 31 31" fill="none" xmlns="http://www.w3.org/2000/svg">
<path d="M15.3201 0.245193C23.5695 0.146056 30.4002 6.81446 30.4993 15.0639C30.5992 23.3758 23.93 30.1439 15.6806 30.243C7.36873 30.3429 0.601356 23.7363 0.501468 15.4244C0.402331 7.17495 7.00824 0.34508 15.3201 0.245193ZM22.6543 12.4079C23.3335 11.7122 23.3207 10.6498 22.625 9.97062C21.9293 9.29143 20.8669 9.30419 20.1877 9.99991L13.5193 16.8305L10.674 14.1145C9.97825 13.4353 8.91583 13.4481 8.23664 14.1438C7.55745 14.8395 7.57022 15.902 8.26593 16.5811L12.3137 20.5328C12.6307 20.904 13.0697 21.0237 13.5696 21.0177C14.0071 21.0125 14.4431 20.8822 14.751 20.5035L22.6543 12.4079Z" fill="#33B048"/>
</svg>
