<svg width="14" height="14" viewBox="0 0 14 14" fill="none" xmlns="http://www.w3.org/2000/svg">
<path d="M6.66699 0.1875C10.2764 0.1875 13.2295 3.14062 13.2295 6.75C13.2295 10.3867 10.2764 13.3125 6.66699 13.3125C3.03027 13.3125 0.104492 10.3867 0.104492 6.75C0.104492 3.14062 3.03027 0.1875 6.66699 0.1875ZM6.66699 12C9.53809 12 11.917 9.64844 11.917 6.75C11.917 3.87891 9.53809 1.5 6.66699 1.5C3.76855 1.5 1.41699 3.87891 1.41699 6.75C1.41699 9.64844 3.76855 12 6.66699 12ZM7.32324 6.85938L8.7998 7.98047C9.10059 8.19922 9.15527 8.60938 8.93652 8.91016C8.7998 9.07422 8.6084 9.15625 8.38965 9.15625C8.25293 9.15625 8.11621 9.12891 8.00684 9.04688L6.25684 7.73438C6.09277 7.59766 6.01074 7.40625 6.01074 7.1875V3.90625C6.01074 3.55078 6.28418 3.25 6.66699 3.25C7.02246 3.25 7.32324 3.55078 7.32324 3.90625V6.85938Z" fill="#6F6F6F"/>
</svg>
