<svg width="25" height="25" viewBox="0 0 25 25" fill="none" xmlns="http://www.w3.org/2000/svg">
<path d="M5.75 11C2.84375 11 0.5 8.65625 0.5 5.75C0.5 2.89062 2.84375 0.5 5.75 0.5C8.60938 0.5 11 2.89062 11 5.75C10.9531 6.03125 10.9531 6.26562 10.9062 6.54688L8.5625 4.85938C8.14062 3.5 6.82812 2.65625 5.42188 2.79688C4.01562 2.9375 2.89062 4.0625 2.75 5.46875C2.60938 6.875 3.45312 8.1875 4.8125 8.60938L6.5 10.9531C6.21875 11 5.98438 11 5.75 11ZM16.3906 4.85938L14.0469 6.54688C14 6.26562 14 6.03125 14 5.75C14 2.89062 16.3438 0.5 19.25 0.5C22.1094 0.5 24.5 2.89062 24.5 5.75C24.5 8.65625 22.1094 11 19.25 11C18.9688 11 18.7344 11 18.4531 10.9531L20.1406 8.60938C21.5 8.1875 22.3438 6.875 22.2031 5.46875C22.0625 4.0625 20.9375 2.9375 19.5312 2.79688C18.125 2.65625 16.8125 3.5 16.3906 4.85938ZM8.5625 20.1875L10.9062 18.5C10.9531 18.7812 10.9531 19.0156 11 19.25C11 22.1562 8.60938 24.5 5.75 24.5C2.84375 24.5 0.5 22.1562 0.5 19.25C0.5 16.3906 2.84375 14 5.75 14C5.98438 14.0469 6.21875 14.0469 6.5 14.0938L4.8125 16.4375C3.45312 16.8594 2.60938 18.1719 2.75 19.5781C2.89062 20.9844 4.01562 22.1094 5.42188 22.25C6.82812 22.3906 8.14062 21.5469 8.5625 20.1875ZM19.25 14C22.1094 14 24.5 16.3906 24.5 19.25C24.5 22.1562 22.1094 24.5 19.25 24.5C16.3438 24.5 14 22.1562 14 19.25C14 19.0156 14 18.7812 14.0469 18.5L16.3906 20.1875C16.8125 21.5469 18.125 22.3906 19.5312 22.25C20.9375 22.1094 22.0625 20.9844 22.2031 19.5781C22.3438 18.1719 21.5 16.8594 20.1406 16.4375L18.4531 14.0938C18.7344 14.0469 18.9688 14.0469 19.25 14ZM19.2969 7.25L17 10.4375V14.6094L19.2969 17.7969C20.0938 17.7969 20.75 18.4531 20.75 19.2969C20.7031 20.0938 20.0469 20.75 19.25 20.75C18.4531 20.7969 17.75 20.1406 17.75 19.2969L14.5625 17H10.3906L7.20312 19.2969C7.20312 20.1406 6.54688 20.7969 5.70312 20.75C4.90625 20.75 4.25 20.0938 4.25 19.2969C4.20312 18.4531 4.85938 17.7969 5.70312 17.7969L8 14.6094V10.4375L5.70312 7.25C4.85938 7.25 4.20312 6.54688 4.25 5.75C4.25 4.95312 4.90625 4.29688 5.70312 4.25C6.54688 4.25 7.20312 4.90625 7.20312 5.70312L10.3906 8H14.5625L17.75 5.70312C17.75 4.90625 18.4531 4.25 19.25 4.25C20.0469 4.29688 20.7031 4.95312 20.75 5.75C20.75 6.54688 20.0938 7.25 19.2969 7.25Z" fill="#1976D2"/>
</svg>
