<svg width="24" height="18" viewBox="0 0 24 18" fill="none" xmlns="http://www.w3.org/2000/svg">
<path d="M12 13.5469C12.75 13.5469 13.5469 13.2656 14.2031 12.75L24 5.15625V15.75C24 17.0156 22.9688 18 21.75 18H2.25C0.984375 18 0 17.0156 0 15.75V5.15625L9.75 12.75C10.4062 13.2656 11.2031 13.5469 12 13.5469ZM0.75 3.84375C0.28125 3.46875 0 2.90625 0 2.25C0 1.03125 0.984375 0 2.25 0H21.75C22.9688 0 24 1.03125 24 2.25C24 2.90625 23.6719 3.46875 23.2031 3.84375L13.2656 11.5781C12.5156 12.1406 11.4375 12.1406 10.6875 11.5781L0.75 3.84375Z" fill="#1976D2"/>
</svg>
