<svg width="20" height="19" viewBox="0 0 20 19" fill="none" xmlns="http://www.w3.org/2000/svg">
<path d="M10 4.5C12.7344 4.5 14.9609 6.76562 14.9609 9.5C14.9609 12.2734 12.7344 14.5 10 14.5C7.22656 14.5 5 12.2734 5 9.5C5 6.76562 7.22656 4.5 10 4.5ZM10 12C11.3672 12 12.5 10.9062 12.5 9.5C12.5 8.13281 11.3672 7 10 7C8.59375 7 7.46094 8.13281 7.46094 9.5C7.46094 10.9062 8.59375 12 10 12ZM10 0.125C15.1562 0.125 19.375 4.34375 19.375 9.5C19.375 14.6953 15.1562 18.875 10 18.875C4.80469 18.875 0.625 14.6953 0.625 9.5C0.625 4.34375 4.80469 0.125 10 0.125ZM10 16.375C13.7891 16.375 16.8359 13.3281 16.8359 9.5C16.8359 5.71094 13.7891 2.625 10 2.625C6.17188 2.625 3.125 5.71094 3.125 9.5C3.125 13.3281 6.17188 16.375 10 16.375Z" fill="#1976D2"/>
</svg>
