<svg width="19" height="19" viewBox="0 0 19 19" fill="none" xmlns="http://www.w3.org/2000/svg">
<path d="M6.76562 0.554688C5.86719 1.76562 5.16406 3.60156 4.8125 5.75H0.90625C2 3.28906 4.14844 1.33594 6.76562 0.554688ZM5.75 9.5C5.75 8.64062 5.78906 7.82031 5.86719 7H13.0938C13.1719 7.82031 13.25 8.64062 13.25 9.5C13.25 10.3984 13.1719 11.2188 13.0938 12H5.86719C5.78906 11.2188 5.75 10.3984 5.75 9.5ZM12.8984 5.75H6.0625C6.6875 2.3125 8.13281 0.125 9.5 0.125C10.8281 0.125 12.2734 2.3125 12.8984 5.75ZM18.0547 5.75H14.1484C13.7969 3.60156 13.0938 1.76562 12.1953 0.554688C14.8125 1.33594 16.9609 3.28906 18.0547 5.75ZM12.1953 18.4844C13.0938 17.2734 13.7969 15.4375 14.1484 13.25H18.0547C16.9609 15.75 14.8125 17.7031 12.1953 18.4844ZM18.5234 7C18.7188 7.82031 18.875 8.64062 18.875 9.5C18.875 10.3984 18.7188 11.2188 18.5234 12H14.3438C14.4219 11.2188 14.5 10.3984 14.5 9.5C14.5 8.64062 14.4219 7.82031 14.3438 7H18.5234ZM6.0625 13.25H12.8984C12.2734 16.7266 10.8281 18.875 9.5 18.875C8.13281 18.875 6.6875 16.7266 6.0625 13.25ZM4.5 9.5C4.5 10.3984 4.53906 11.2188 4.61719 12H0.4375C0.242188 11.2188 0.125 10.3984 0.125 9.5C0.125 8.64062 0.242188 7.82031 0.4375 7H4.61719C4.53906 7.82031 4.5 8.64062 4.5 9.5ZM0.90625 13.25H4.8125C5.16406 15.4375 5.86719 17.2734 6.76562 18.4844C4.14844 17.7031 2 15.75 0.90625 13.25Z" fill="#1976D2"/>
</svg>
