<svg width="31" height="22" viewBox="0 0 31 22" fill="none" xmlns="http://www.w3.org/2000/svg">
<path d="M29.4531 5.53198C29.9219 5.71948 30.25 6.14136 30.25 6.61011C30.25 7.12573 29.9219 7.54761 29.4531 7.73511L16.2344 12.4695C15.5781 12.7039 14.875 12.7039 14.2188 12.4695L5.3125 9.28198C4.75 9.89136 4.32812 10.6414 4.14062 11.4851C4.46875 11.7195 4.75 12.1414 4.75 12.6101C4.75 13.0789 4.51562 13.5007 4.1875 13.782L5.3125 20.7664C5.40625 21.2351 5.07812 21.6101 4.60938 21.6101H1.84375C1.42188 21.6101 1.04688 21.2351 1.14062 20.7664L2.26562 13.782C1.9375 13.5007 1.75 13.0789 1.75 12.6101C1.75 12.0007 2.125 11.4851 2.64062 11.2507C2.82812 10.3132 3.25 9.46948 3.8125 8.71948L1 7.73511C0.53125 7.54761 0.25 7.12573 0.25 6.61011C0.25 6.14136 0.53125 5.71948 1 5.53198L14.2188 0.797607C14.875 0.563232 15.5781 0.563232 16.2344 0.797607L29.4531 5.53198ZM16.7031 13.8757L23.5469 11.4382L24.25 18.1414C24.25 20.0632 20.1719 21.6101 15.25 21.6101C10.2344 21.6101 6.25 20.0632 6.25 18.1414L6.90625 11.4382L13.7031 13.8757C14.2188 14.0632 14.7344 14.1101 15.25 14.1101C15.7188 14.1101 16.2344 14.0632 16.7031 13.8757Z" fill="#438BF4"/>
</svg>
