<svg width="17" height="17" viewBox="0 0 17 17" fill="none" xmlns="http://www.w3.org/2000/svg">
<path d="M16.4688 2.15625L14.4688 15.1562C14.4375 15.4688 14.25 15.75 13.9688 15.875C13.8125 15.9688 13.6562 16 13.4688 16C13.3438 16 13.2188 16 13.0938 15.9375L9.28125 14.3438L7.6875 16.7188C7.5625 16.9062 7.34375 17 7.125 17C6.78125 17 6.46875 16.7188 6.46875 16.375V13.3438C6.46875 13.125 6.5625 12.9062 6.6875 12.75L13.4688 4.03125L4.3125 12.2812L1.09375 10.9375C0.75 10.7812 0.5 10.4688 0.5 10.0625C0.46875 9.6875 0.65625 9.34375 1 9.15625L15 1.15625C15.3125 0.96875 15.7188 0.96875 16.0625 1.1875C16.375 1.40625 16.5312 1.78125 16.4688 2.15625Z" fill="white"/>
</svg>
