<svg width="28" height="25" viewBox="0 0 28 25" fill="none" xmlns="http://www.w3.org/2000/svg">
<path d="M12.5312 0.5C12.7656 0.5 13.0938 0.6875 13.1875 0.921875L18.1094 9.5H23.4531C25.1406 9.5 28 10.8594 28 12.5C28 14.1875 25.1406 15.5 23.4531 15.5H18.1094L13.1875 24.125C13.0469 24.3594 12.8125 24.5 12.5312 24.5H9.48438C8.96875 24.5 8.59375 24.0312 8.73438 23.5625L11.0312 15.5H6.20312L4.1875 18.2188C4.04688 18.4062 3.85938 18.5 3.57812 18.5H1.70312C1.23438 18.5 0.859375 18.0781 1 17.6094L2.45312 12.5L1 7.4375C0.859375 6.96875 1.23438 6.5 1.70312 6.5H3.57812C3.85938 6.5 4.04688 6.64062 4.1875 6.82812L6.20312 9.5H11.0312L8.73438 1.48438C8.59375 1.01562 8.96875 0.5 9.48438 0.5H12.5312Z" fill="#1976D2"/>
</svg>
