<svg width="27" height="25" viewBox="0 0 27 25" fill="none" xmlns="http://www.w3.org/2000/svg">
<path d="M7.5 14C8.10938 14 8.625 14.5156 8.625 15.125V23.375C8.625 24.0312 8.10938 24.5 7.5 24.5C6.84375 24.5 6.375 24.0312 6.375 23.375V15.125C6.375 14.5156 6.84375 14 7.5 14ZM1.5 18.5C2.10938 18.5 2.625 19.0156 2.625 19.625V23.375C2.625 24.0312 2.10938 24.5 1.5 24.5C0.84375 24.5 0.375 24.0312 0.375 23.375V19.625C0.375 19.0156 0.84375 18.5 1.5 18.5ZM13.5 9.5C14.1094 9.5 14.625 10.0156 14.625 10.625V23.375C14.625 24.0312 14.1094 24.5 13.5 24.5C12.8438 24.5 12.375 24.0312 12.375 23.375V10.625C12.375 10.0156 12.8438 9.5 13.5 9.5ZM19.5 5C20.1094 5 20.625 5.51562 20.625 6.125V23.375C20.625 24.0312 20.1094 24.5 19.5 24.5C18.8438 24.5 18.375 24.0312 18.375 23.375V6.125C18.375 5.51562 18.8438 5 19.5 5ZM25.5 0.5C26.1094 0.5 26.625 1.01562 26.625 1.625V23.375C26.625 24.0312 26.1094 24.5 25.5 24.5C24.8438 24.5 24.375 24.0312 24.375 23.375V1.625C24.375 1.01562 24.8438 0.5 25.5 0.5Z" fill="#1A73E8"/>
</svg>
