<svg width="31" height="25" viewBox="0 0 31 25" fill="none" xmlns="http://www.w3.org/2000/svg">
<path d="M15.7031 15.1101C13.0312 15.1101 10.8281 12.9539 10.8281 10.2351C10.8281 7.56323 13.0312 5.36011 15.7031 5.36011C18.4219 5.36011 20.5781 7.56323 20.5781 10.2351C20.5781 12.9539 18.4219 15.1101 15.7031 15.1101ZM18.0469 16.6101C21.75 16.6101 24.75 19.4226 24.75 22.8914C24.75 23.5945 24.1406 24.1101 23.3906 24.1101H8.0625C7.3125 24.1101 6.75 23.5945 6.75 22.8914C6.75 19.4226 9.70312 16.6101 13.4062 16.6101H18.0469ZM24.75 7.61011C22.6406 7.61011 21 5.96948 21 3.86011C21 1.79761 22.6406 0.110107 24.75 0.110107C26.8125 0.110107 28.5 1.79761 28.5 3.86011C28.5 5.96948 26.8125 7.61011 24.75 7.61011ZM9.32812 10.2351C9.32812 11.8289 9.9375 13.282 10.9219 14.3601H1.54688C1.07812 14.3601 0.75 13.9851 0.75 13.5164C0.75 11.0789 2.57812 9.11011 4.875 9.11011H7.73438C8.34375 9.11011 8.90625 9.25073 9.42188 9.53198C9.375 9.76636 9.32812 10.0007 9.32812 10.2351ZM6.75 7.61011C4.64062 7.61011 3 5.96948 3 3.86011C3 1.79761 4.64062 0.110107 6.75 0.110107C8.8125 0.110107 10.5 1.79761 10.5 3.86011C10.5 5.96948 8.8125 7.61011 6.75 7.61011ZM26.5781 9.11011C28.875 9.11011 30.75 11.0789 30.75 13.5164C30.75 13.9851 30.375 14.3601 29.9062 14.3601H20.5312C21.5156 13.282 22.0781 11.8289 22.0781 10.2351C22.0781 10.0007 22.0312 9.76636 22.0312 9.53198C22.5469 9.29761 23.1094 9.11011 23.7188 9.11011H26.5781Z" fill="#438BF4"/>
</svg>
